<?xml version="1.0" encoding="UTF-8"?>
<svg width="230px" height="404px" viewBox="0 0 230 404" version="1.1" xmlns="http://www.w3.org/2000/svg" xmlns:xlink="http://www.w3.org/1999/xlink">
    <!-- Generator: Sketch 43.1 (39012) - http://www.bohemiancoding.com/sketch -->
    <title>VIP Invitation SS2017-words</title>
    <desc>Created with Sketch.</desc>
    <defs>
        <polygon id="path-1" points="0.06 89.829 0.06 0.165 20.857 0.165 41.654 0.165 41.654 89.829 0.06 89.829"></polygon>
    </defs>
    <g id="Page-1" stroke="none" stroke-width="1" fill="none" fill-rule="evenodd">
        <g id="VIP-Invitation-SS2017-words">
            <g id="Group-3">
                <mask id="mask-2" fill="white">
                    <use xlink:href="#path-1"></use>
                </mask>
                <g id="Clip-2"></g>
                <path d="M41.654,57.413 C41.654,50.87 40.055,47.721 34.814,43.93 L19.496,32.531 C17.02,30.778 16.138,29.113 16.138,26.18 L16.138,17.732 C16.138,15.159 17.494,13.796 20.059,13.796 L21.465,13.796 C24.032,13.796 25.388,15.159 25.388,17.732 L25.388,28.994 L41.4,21.154 L41.4,16.068 C41.4,5.366 36.214,0.165 25.547,0.165 L15.853,0.165 C5.185,0.165 -0.001,5.366 -0.001,16.068 L-0.001,30.278 C-0.001,36.658 1.727,40.061 6.84,43.76 L22.158,55.159 C24.635,56.912 25.516,58.576 25.516,61.509 L25.516,72.26 C25.516,74.836 24.16,76.197 21.594,76.197 L19.934,76.197 C17.368,76.197 16.012,74.836 16.012,72.26 L16.012,58.75 L-0.001,66.37 L-0.001,73.927 C-0.001,84.629 5.185,89.829 15.853,89.829 L25.804,89.829 C36.47,89.829 41.654,84.629 41.654,73.927 L41.654,57.413" id="Fill-1" fill="#D9283D" mask="url(#mask-2)"></path>
            </g>
            <polyline id="Fill-4" fill="#D9283D" points="72.63 0.932 72.63 40.666 62.233 40.666 62.233 0.932 45.838 0.932 45.838 89.063 62.233 89.063 62.233 55.194 72.63 55.194 72.63 89.063 89.023 89.063 89.023 0.932 72.63 0.932"></polyline>
            <path d="M104.205,0.93 L92.662,89.064 L107.362,89.064 L109.113,70.722 L121.207,70.722 L122.612,89.064 L138.829,89.064 L127.286,0.93 L104.205,0.93 Z M114.859,15.344 L119.826,56.576 L110.622,56.576 L114.859,15.344 L114.859,15.344 Z" id="Fill-5" fill="#D9283D"></path>
            <path d="M157.98,41.381 L157.98,15.076 L163.05,15.076 C165.618,15.076 166.973,16.438 166.973,19.012 L166.973,37.445 C166.973,40.02 165.618,41.381 163.05,41.381 L157.98,41.381 Z M167.101,59.078 L167.101,89.063 L183.496,89.063 L183.496,58.951 C183.496,52.71 181.395,49.579 176.248,48.138 L174.062,47.527 L176.193,46.74 C181.154,44.905 183.367,41.012 183.367,34.116 L183.367,16.836 C183.367,6.134 178.182,0.931 167.517,0.931 L141.586,0.931 L141.586,89.063 L157.98,89.063 L157.98,55.14 L163.18,55.14 C165.745,55.14 167.101,56.503 167.101,59.078 L167.101,59.078 Z" id="Fill-6" fill="#D9283D"></path>
            <path d="M212.736,37.306 C212.736,39.881 211.378,41.242 208.812,41.242 L204.253,41.242 L204.253,14.82 L208.812,14.82 C211.378,14.82 212.736,16.183 212.736,18.757 L212.736,37.306 Z M229.127,16.835 C229.127,6.133 223.945,0.932 213.278,0.932 L187.858,0.932 L187.858,89.063 L204.253,89.063 L204.253,54.73 L213.278,54.73 C223.945,54.73 229.127,49.526 229.127,38.824 L229.127,16.835 L229.127,16.835 Z" id="Fill-7" fill="#D9283D"></path>
            <path d="M10.509,171.931 L0,199.507 L7.141,199.507 L9.072,194.163 L19.087,194.163 L21.063,199.507 L28.384,199.507 L17.875,171.931 L10.509,171.931 Z M14.102,180.464 L16.931,188.234 L11.273,188.234 L14.102,180.464 Z M30.585,199.507 L37.636,199.507 L37.636,187.291 C37.995,185.899 39.163,185.09 40.555,185.09 C42.352,185.09 43.205,186.303 43.205,187.965 L43.205,199.507 L50.211,199.507 L50.211,186.258 C50.211,181.767 47.561,178.847 43.07,178.847 C40.735,178.847 38.759,179.791 37.636,181.048 L37.636,179.297 L30.585,179.297 L30.585,199.507 Z M53.894,199.507 L60.945,199.507 L60.945,187.291 C61.304,185.899 62.472,185.09 63.864,185.09 C65.661,185.09 66.514,186.303 66.514,187.965 L66.514,199.507 L73.521,199.507 L73.521,186.258 C73.521,181.767 70.871,178.847 66.38,178.847 C64.044,178.847 62.068,179.791 60.945,181.048 L60.945,179.297 L53.894,179.297 L53.894,199.507 Z M77.203,199.508 L84.254,199.508 L84.254,179.297 L77.203,179.297 L77.203,199.508 Z M84.749,173.817 C84.749,171.482 82.907,170 80.751,170 C78.596,170 76.754,171.482 76.754,173.817 C76.754,176.108 78.596,177.59 80.751,177.59 C82.907,177.59 84.749,176.108 84.749,173.817 L84.749,173.817 Z M100.512,199.507 L108.237,179.297 L101.321,179.297 L97.548,190.884 L93.686,179.297 L86.5,179.297 L94.18,199.507 L100.512,199.507 Z M121.711,192.456 C121.306,193.848 120.184,194.477 118.746,194.477 C116.725,194.477 115.468,193.174 115.243,190.749 L128.313,190.749 L128.313,188.998 C128.313,182.979 124.81,178.847 118.612,178.847 C112.773,178.847 108.462,183.159 108.462,189.402 C108.462,195.69 112.549,199.956 118.746,199.956 C124.001,199.956 127.504,197.127 128.223,192.456 L121.711,192.456 Z M118.612,184.327 C120.363,184.327 121.396,185.584 121.486,187.246 L115.378,187.246 C115.827,185.36 116.95,184.327 118.612,184.327 L118.612,184.327 Z M144.571,179.207 C144.256,179.027 143.538,178.847 142.64,178.847 C140.619,178.847 139.047,179.746 138.059,181.093 L138.059,179.297 L131.007,179.297 L131.007,199.507 L138.059,199.507 L138.059,187.65 C138.418,186.213 139.72,185.36 141.652,185.36 C142.774,185.36 143.718,185.539 144.571,185.989 L144.571,179.207 Z M146.142,193.264 C146.771,197.621 150.499,199.956 155.664,199.956 C160.604,199.956 164.512,197.576 164.512,193.264 C164.512,189.986 162.535,188.055 158.853,187.201 L154.855,186.258 C153.912,186.078 153.463,185.764 153.463,185.135 C153.463,184.237 154.316,183.788 155.349,183.788 C156.966,183.788 157.595,184.551 157.82,185.405 L164.332,185.405 C163.703,181.407 160.694,178.847 155.17,178.847 C150.409,178.847 146.547,181.363 146.547,185.674 C146.547,189.222 148.747,190.839 152.116,191.558 L156.068,192.366 C157.056,192.591 157.64,192.86 157.64,193.624 C157.64,194.567 156.742,195.016 155.574,195.016 C154.316,195.016 153.328,194.387 153.014,193.264 L146.142,193.264 Z M185.441,199.507 L185.441,187.111 C185.441,181.857 182.162,178.803 176.413,178.803 C171.203,178.803 167.745,181.902 167.161,185.809 L173.808,185.809 C174.123,184.911 174.886,184.327 176.189,184.327 C177.895,184.327 178.659,185.45 178.659,186.752 L178.659,188.055 C177.85,187.471 175.874,186.932 174.212,186.932 C169.811,186.932 166.443,189.447 166.443,193.354 C166.443,197.621 169.811,199.866 173.808,199.866 C175.964,199.866 177.985,199.148 178.659,198.474 L178.659,199.507 L185.441,199.507 Z M178.659,193.848 C178.21,194.657 176.997,195.196 175.695,195.196 C174.302,195.196 172.91,194.612 172.91,193.219 C172.91,191.872 174.302,191.288 175.695,191.288 C176.997,191.288 178.21,191.827 178.659,192.68 L178.659,193.848 Z M202.462,179.207 C202.148,179.027 201.429,178.847 200.531,178.847 C198.51,178.847 196.938,179.746 195.95,181.093 L195.95,179.297 L188.899,179.297 L188.899,199.507 L195.95,199.507 L195.95,187.65 C196.309,186.213 197.612,185.36 199.543,185.36 C200.666,185.36 201.609,185.539 202.462,185.989 L202.462,179.207 Z M215.262,206.648 L225.681,179.297 L218.675,179.297 L214.902,190.794 L211.04,179.297 L203.719,179.297 L211.265,199.013 L208.3,206.648 L215.262,206.648 L215.262,206.648 Z" id="Fill-8" fill="#FFFFFF"></path>
            <path d="M26.9,108.07 L17.184,108.07 L0,116.257 L0,129.933 L12.866,123.725 L12.866,163.312 L26.9,163.312 L26.9,108.07 Z M56.95,164.211 C70.535,164.211 79.892,152.515 79.892,135.691 C79.892,118.866 70.535,107.17 56.95,107.17 C43.364,107.17 34.098,118.866 34.098,135.691 C34.098,152.515 43.364,164.211 56.95,164.211 L56.95,164.211 Z M56.95,119.857 C63.337,119.857 65.856,127.145 65.856,135.691 C65.856,144.238 63.337,151.525 56.95,151.525 C50.562,151.525 48.042,144.238 48.042,135.691 C48.042,127.145 50.562,119.857 56.95,119.857 L56.95,119.857 Z M86.074,129.963 C86.074,135.942 89.22,138.566 94.781,138.566 C96.617,138.566 98.401,138.251 99.344,137.832 L99.344,130.856 C98.61,131.17 97.614,131.379 96.721,131.379 C95.095,131.379 94.204,130.592 94.204,128.757 L94.204,120.889 L99.134,120.889 L99.134,114.49 L94.204,114.49 L94.204,107.985 L86.074,107.985 L86.074,114.49 L82.613,114.49 L82.613,120.889 L86.074,120.889 L86.074,129.963 Z M103.121,138.093 L111.356,138.093 L111.356,123.826 C111.775,122.2 113.138,121.256 114.764,121.256 C116.863,121.256 117.86,122.672 117.86,124.613 L117.86,138.093 L126.042,138.093 L126.042,122.62 C126.042,117.375 122.948,113.965 117.702,113.965 C114.974,113.965 112.667,115.066 111.356,116.535 L111.356,104 L103.121,104 L103.121,138.093 L103.121,138.093 Z" id="Fill-9" fill="#FFFFFF"></path>
            <path d="M11.041,252.313 C12.071,252.313 12.778,251.55 12.778,250.653 C12.778,249.356 11.633,248.669 10.429,248.229 L10.354,248.401 C10.621,248.535 10.698,248.649 10.698,248.745 C10.698,248.898 10.392,249.012 10.24,249.107 C9.686,249.47 9.343,249.947 9.343,250.596 C9.343,251.627 10.22,252.313 11.041,252.313 L11.041,252.313 Z M8.446,261.988 C11.404,261.797 13.255,260.156 13.255,258.076 C13.255,253.763 6.08,253.954 6.08,250.805 C6.08,249.069 7.721,248.287 8.274,248.287 L8.274,248.096 C6.003,248.096 4,249.832 4,251.97 C4,256.454 10.717,255.633 10.717,259.068 C10.717,260.252 10.259,261.263 8.446,261.797 L8.446,261.988 Z M6.976,261.625 C5.564,261.015 4.438,259.068 4.438,257.389 L4.438,257.217 L4.209,257.217 L4.209,261.683 L4.4,261.683 C4.4,261.683 4.782,261.301 5.297,261.301 C5.583,261.301 5.927,261.378 6.327,261.568 L6.843,261.816 L6.976,261.625 Z M20.639,248.211 L16.307,248.211 L16.307,248.401 L17.815,248.401 L17.815,261.759 L16.307,261.759 L16.307,261.95 L22.128,261.95 L22.128,261.759 L20.639,261.759 L20.639,248.211 Z M22.319,256.359 C24.8,256.359 26.899,254.66 26.899,252.275 C26.899,249.851 24.857,248.211 22.319,248.211 L22.319,248.401 C23.33,248.401 23.941,249.127 24.093,250.29 C24.151,250.711 24.17,251.435 24.17,252.313 C24.17,253.191 24.132,253.916 24.093,254.278 C23.998,255.214 23.426,256.169 22.319,256.169 L22.319,256.359 Z M35.791,254.927 C36.554,255.061 36.879,255.576 36.936,257.828 C36.973,259.259 37.184,260.9 39.073,261.702 C39.646,261.95 40.543,262.045 41.744,262.065 L41.744,261.873 C40.371,261.702 40.008,260.156 39.894,258.706 C39.817,257.656 39.741,256.74 39.092,255.958 C38.195,254.87 36.745,254.851 36.745,254.851 C36.745,254.851 39.989,254.278 39.989,251.55 C39.989,249.546 38.366,248.211 36.134,248.211 L35.829,248.211 L35.829,248.401 L35.963,248.401 C37.318,248.401 37.413,250.576 37.413,251.55 C37.413,252.809 37.413,254.736 35.791,254.736 L35.791,254.927 Z M33.711,248.211 L29.379,248.211 L29.379,248.401 L30.887,248.401 L30.887,261.759 L29.379,261.759 L29.379,261.95 L35.218,261.95 L35.218,261.759 L33.711,261.759 L33.711,248.211 Z M49.874,261.95 L49.874,261.759 L48.366,261.759 L48.366,248.401 L49.874,248.401 L49.874,248.211 L44.033,248.211 L44.033,248.401 L45.542,248.401 L45.542,261.759 L44.033,261.759 L44.033,261.95 L49.874,261.95 Z M53.938,248.401 L63.498,262.141 L63.689,262.141 L63.689,257.982 L56.915,248.211 L52.564,248.211 L52.564,248.401 L53.938,248.401 Z M63.67,250.958 C63.67,248.745 65.197,248.401 65.636,248.401 L65.636,248.211 L61.361,248.211 L61.361,248.401 C61.8,248.401 63.327,248.745 63.327,250.958 L63.327,253.458 L63.67,254.088 L63.67,250.958 Z M54.32,259.202 C54.32,261.415 52.793,261.759 52.354,261.759 L52.354,261.95 L56.629,261.95 L56.629,261.759 C56.19,261.759 54.663,261.415 54.663,259.202 L54.663,253.935 L54.32,253.305 L54.32,259.202 Z M77.847,261.95 L77.847,256.702 L79.089,256.702 L79.089,256.511 L74.108,256.511 L74.108,256.702 L75.367,256.702 L75.367,260.252 L77.847,261.95 Z M73.612,248.115 C69.414,248.382 68.306,251.607 68.306,255.118 C68.306,258.629 69.414,261.873 73.612,262.045 L73.612,261.854 C71.551,261.473 71.15,258.629 71.15,255.08 C71.15,251.912 71.512,248.764 73.612,248.306 L73.612,248.115 Z M74.528,250.863 C74.528,251.798 75.234,252.599 76.169,252.599 C77.142,252.599 77.963,251.874 77.963,250.996 C77.963,249.813 76.97,248.993 75.825,248.458 L75.73,248.63 C75.978,248.764 76.054,248.878 76.054,248.974 C76.054,249.145 75.711,249.241 75.557,249.317 C74.929,249.641 74.528,250.138 74.528,250.863 L74.528,250.863 Z M86.682,248 L85.386,248 L80.042,266.72 L81.283,266.72 L86.682,248 Z M96.587,252.313 C97.617,252.313 98.323,251.55 98.323,250.653 C98.323,249.356 97.178,248.669 95.976,248.229 L95.9,248.401 C96.167,248.535 96.243,248.649 96.243,248.745 C96.243,248.898 95.938,249.012 95.785,249.107 C95.232,249.47 94.887,249.947 94.887,250.596 C94.887,251.627 95.765,252.313 96.587,252.313 L96.587,252.313 Z M93.992,261.988 C96.949,261.797 98.8,260.156 98.8,258.076 C98.8,253.763 91.625,253.954 91.625,250.805 C91.625,249.069 93.265,248.287 93.82,248.287 L93.82,248.096 C91.549,248.096 89.545,249.832 89.545,251.97 C89.545,256.454 96.262,255.633 96.262,259.068 C96.262,260.252 95.804,261.263 93.992,261.797 L93.992,261.988 Z M92.522,261.625 C91.11,261.015 89.984,259.068 89.984,257.389 L89.984,257.217 L89.755,257.217 L89.755,261.683 L89.946,261.683 C89.946,261.683 90.328,261.301 90.843,261.301 C91.129,261.301 91.472,261.378 91.873,261.568 L92.388,261.816 L92.522,261.625 Z M108.246,262.045 L108.246,261.854 C106.567,261.587 106.109,260.423 106.09,259.507 C106.071,258.61 106.071,252.237 106.071,248.401 L107.559,248.401 L107.559,248.211 L101.758,248.211 L101.758,248.401 L103.247,248.401 C103.247,252.256 103.247,256.568 103.265,257.561 C103.285,258.706 103.647,259.774 104.392,260.576 C105.231,261.473 106.51,262.045 108.246,262.045 L108.246,262.045 Z M110.288,248.401 C110.727,248.401 112.254,248.745 112.254,250.958 C112.254,253.42 112.234,257.026 112.234,257.809 C112.215,259.412 111.471,260.728 110.04,261.607 L110.116,261.816 C111.719,260.957 112.54,259.565 112.577,257.637 C112.597,256.988 112.597,253.42 112.597,250.958 C112.597,248.745 114.124,248.401 114.563,248.401 L114.563,248.211 L110.288,248.211 L110.288,248.401 Z M127.691,261.759 L126.241,261.759 L126.241,261.95 L132.004,261.95 L132.004,261.759 L130.514,261.759 L130.514,248.401 L132.004,248.401 L132.004,248.211 L127.691,248.211 L127.691,261.759 Z M118.341,248.401 L123.283,262.141 L123.473,262.141 L125.706,255.423 L125.706,254.431 L124.562,257.828 L121.146,248.211 L116.795,248.211 L116.795,248.401 L118.341,248.401 Z M118.341,259.202 C118.341,261.415 116.814,261.759 116.375,261.759 L116.375,261.95 L120.65,261.95 L120.65,261.759 C120.211,261.759 118.684,261.415 118.684,259.202 L118.684,254.813 L118.341,253.898 L118.341,259.202 Z M145.8,261.759 L144.349,261.759 L144.349,261.95 L150.113,261.95 L150.113,261.759 L148.624,261.759 L148.624,248.401 L150.113,248.401 L150.113,248.211 L145.8,248.211 L145.8,261.759 Z M136.45,248.401 L141.391,262.141 L141.583,262.141 L143.815,255.423 L143.815,254.431 L142.671,257.828 L139.255,248.211 L134.904,248.211 L134.904,248.401 L136.45,248.401 Z M136.45,259.202 C136.45,261.415 134.923,261.759 134.484,261.759 L134.484,261.95 L138.759,261.95 L138.759,261.759 C138.32,261.759 136.793,261.415 136.793,259.202 L136.793,254.813 L136.45,253.898 L136.45,259.202 Z M157.288,248.211 L152.974,248.211 L152.974,248.401 L154.481,248.401 L154.481,261.759 L152.974,261.759 L152.974,261.95 L157.288,261.95 L157.288,248.211 Z M163.375,261.95 L163.375,258.324 L163.183,258.324 C163.183,259.622 162.096,261.759 159.729,261.759 L159.329,261.759 L159.329,261.95 L163.375,261.95 Z M159.348,248.211 L159.348,248.401 C161.161,248.401 162.955,249.87 162.955,251.512 L163.145,251.512 L163.145,248.211 L159.348,248.211 Z M158.681,255.175 C160.341,255.175 160.799,256.549 160.799,257.313 L160.99,257.313 L160.99,252.809 L160.799,252.809 C160.799,253.572 160.341,254.985 158.681,254.985 L158.681,255.175 Z M173.221,254.927 C173.984,255.061 174.308,255.576 174.366,257.828 C174.404,259.259 174.614,260.9 176.503,261.702 C177.076,261.95 177.973,262.045 179.175,262.065 L179.175,261.873 C177.801,261.702 177.438,260.156 177.324,258.706 C177.248,257.656 177.171,256.74 176.522,255.958 C175.626,254.87 174.175,254.851 174.175,254.851 C174.175,254.851 177.419,254.278 177.419,251.55 C177.419,249.546 175.797,248.211 173.564,248.211 L173.259,248.211 L173.259,248.401 L173.392,248.401 C174.748,248.401 174.843,250.576 174.843,251.55 C174.843,252.809 174.843,254.736 173.221,254.736 L173.221,254.927 Z M171.14,248.211 L166.809,248.211 L166.809,248.401 L168.316,248.401 L168.316,261.759 L166.809,261.759 L166.809,261.95 L172.648,261.95 L172.648,261.759 L171.14,261.759 L171.14,248.211 Z M188.162,258.782 C188.81,257.866 190.108,257.179 191.062,256.721 C192.799,255.901 194.726,254.832 194.726,252.427 C194.726,250.386 193.276,248.592 190.89,248.306 L190.89,248.496 C191.52,248.764 191.655,249.393 191.806,250.08 C191.883,250.424 191.96,251.779 191.96,252.351 C191.96,252.924 191.883,253.706 191.806,254.107 C191.558,255.214 190.796,255.843 189.898,256.511 C189.155,257.065 188.296,257.828 187.876,258.629 L188.162,258.782 Z M194.879,261.95 L194.879,258.343 L194.574,258.343 C194.574,260.156 193.066,260.156 191.139,260.156 L186.96,260.156 L186.349,261.663 L186.349,261.95 L194.879,261.95 Z M189.764,251.054 C189.764,250.328 189.365,249.813 188.734,249.489 C188.582,249.412 188.239,249.317 188.239,249.145 C188.239,249.05 188.314,248.935 188.562,248.802 L188.468,248.63 C187.323,249.164 186.33,249.89 186.33,251.111 C186.33,252.008 187.056,252.771 188.048,252.771 C189.02,252.771 189.764,252.008 189.764,251.054 L189.764,251.054 Z M202.149,261.854 C200.889,261.244 200.889,257.523 200.889,255.175 C200.889,252.828 200.889,249.127 202.149,248.496 L202.149,248.306 C199.173,249.012 198.313,251.798 198.313,255.175 C198.313,258.553 199.173,261.339 202.149,262.045 L202.149,261.854 Z M203.809,262.045 C206.787,261.339 207.645,258.553 207.645,255.175 C207.645,251.798 206.787,249.012 203.809,248.306 L203.809,248.496 C205.07,249.127 205.07,252.828 205.07,255.175 C205.07,257.523 205.07,261.244 203.809,261.854 L203.809,262.045 Z M216.195,261.95 L216.195,261.759 L215.031,261.759 L215.031,248.306 C215.031,248.306 213.37,248.611 210.889,248.611 L210.889,248.802 L212.302,248.802 L212.302,261.759 L211.138,261.759 L211.138,261.95 L216.195,261.95 Z M222.721,261.129 C223.236,259.679 223.198,257.217 225.353,251.416 L225.049,251.416 C223.731,254.87 220.908,258.667 220.221,260.118 C220.126,260.309 220.067,260.614 220.067,260.805 C220.067,261.53 220.64,262.141 221.423,262.141 C221.957,262.141 222.473,261.797 222.721,261.129 L222.721,261.129 Z M225.869,250.176 L226.499,248.611 L226.499,248.401 L218.941,248.401 L218.58,251.092 L218.808,251.092 C218.885,250.711 219.228,250.176 220.011,250.176 L225.869,250.176 L225.869,250.176 Z" id="Fill-10" fill="#FFFFFF"></path>
            <path d="M4,385.521 L15.772,385.521 L15.772,383.388 L6.372,383.388 L6.372,367.082 L4,367.082 L4,385.521 Z M28.625,385.521 L28.625,376.631 C28.625,373.718 26.733,371.916 23.55,371.916 C20.997,371.916 19.015,373.448 18.565,375.7 L20.787,375.7 C21.207,374.469 22.108,373.868 23.519,373.868 C25.441,373.868 26.462,375.07 26.462,376.721 L26.462,378.403 C25.892,377.892 24.48,377.322 23.099,377.322 C20.246,377.322 17.994,379.003 17.994,381.496 C17.994,384.139 20.246,385.76 22.949,385.76 C24.541,385.76 25.952,385.07 26.462,384.529 L26.462,385.521 L28.625,385.521 Z M26.462,382.217 C26.072,383.208 24.721,383.868 23.339,383.868 C21.718,383.868 20.156,383.118 20.156,381.496 C20.156,379.904 21.718,379.184 23.339,379.184 C24.721,379.184 26.072,379.844 26.462,380.835 L26.462,382.217 Z M43.099,372.188 L40.817,372.188 L40.817,381.226 C40.336,382.667 39.045,383.718 37.483,383.718 C35.471,383.718 34.57,382.427 34.57,380.566 L34.57,372.188 L32.288,372.188 L32.288,380.925 C32.288,383.838 33.91,385.79 36.943,385.79 C38.655,385.79 40.066,384.889 40.817,383.838 L40.817,385.521 L43.099,385.521 L43.099,372.188 Z M47.093,385.521 L49.345,385.521 L49.345,376.482 C49.826,375.04 51.177,373.988 52.739,373.988 C54.751,373.988 55.682,375.28 55.682,377.142 L55.682,385.521 L57.964,385.521 L57.964,376.781 C57.964,373.868 56.312,371.916 53.279,371.916 C51.567,371.916 50.126,372.818 49.345,373.868 L49.345,372.188 L47.093,372.188 L47.093,385.521 Z M60.817,378.854 C60.817,382.997 63.309,385.79 66.883,385.79 C69.886,385.79 71.778,384.049 72.228,381.496 L69.916,381.496 C69.615,382.938 68.474,383.808 66.883,383.808 C64.6,383.808 63.099,381.766 63.099,378.854 C63.099,375.941 64.6,373.899 66.883,373.899 C68.474,373.899 69.615,374.77 69.916,376.211 L72.228,376.211 C71.778,373.658 69.886,371.916 66.883,371.916 C63.309,371.916 60.817,374.709 60.817,378.854 L60.817,378.854 Z M75.171,385.521 L77.423,385.521 L77.423,376.482 C77.904,375.04 79.255,373.988 80.817,373.988 C82.829,373.988 83.76,375.28 83.76,377.142 L83.76,385.521 L86.042,385.521 L86.042,376.781 C86.042,373.868 84.39,371.916 81.357,371.916 C79.645,371.916 78.204,372.818 77.423,373.868 L77.423,366 L75.171,366 L75.171,385.521 Z M96.672,367.082 L96.672,385.521 L108.414,385.521 L108.414,383.388 L99.015,383.388 L99.015,377.112 L107.543,377.112 L107.543,375.009 L99.015,375.009 L99.015,369.184 L108.414,369.184 L108.414,367.082 L96.672,367.082 Z M117.633,385.521 L122.829,372.188 L120.456,372.188 L116.582,382.667 L112.678,372.188 L110.246,372.188 L115.411,385.521 L117.633,385.521 Z M133.549,381.527 C133.189,383.028 131.957,383.868 130.306,383.868 C128.054,383.868 126.462,382.127 126.432,379.275 L135.862,379.275 L135.862,378.463 C135.862,374.589 133.909,371.916 130.246,371.916 C126.613,371.916 124.18,374.889 124.18,378.883 C124.18,382.997 126.672,385.79 130.306,385.79 C133.309,385.79 135.201,384.049 135.681,381.527 L133.549,381.527 Z M130.277,373.838 C132.498,373.838 133.549,375.58 133.579,377.563 L126.492,377.563 C126.823,375.22 128.264,373.838 130.277,373.838 L130.277,373.838 Z M138.865,385.521 L141.116,385.521 L141.116,376.482 C141.597,375.04 142.949,373.988 144.51,373.988 C146.522,373.988 147.452,375.28 147.452,377.142 L147.452,385.521 L149.736,385.521 L149.736,376.781 C149.736,373.868 148.083,371.916 145.05,371.916 C143.338,371.916 141.897,372.818 141.116,373.868 L141.116,372.188 L138.865,372.188 L138.865,385.521 Z M154.179,382.157 C154.179,384.619 155.681,385.79 157.843,385.79 C158.655,385.79 159.434,385.61 159.946,385.34 L159.946,383.238 C159.494,383.538 158.834,383.778 158.203,383.778 C157.062,383.778 156.431,383.208 156.431,381.916 L156.431,374.11 L159.645,374.11 L159.645,372.188 L156.431,372.188 L156.431,368.673 L154.179,368.673 L154.179,372.188 L152.017,372.188 L152.017,374.11 L154.179,374.11 L154.179,382.157 L154.179,382.157 Z" id="Fill-11" fill="#FFFFFF"></path>
            <path d="M13.162,355.382 L13.162,342.877 L27.626,342.877 L27.626,335.04 L13.162,335.04 L13.162,328.01 L28.893,328.01 L28.893,320 L4,320 L4,355.382 L13.162,355.382 Z M57.302,342.416 C57.302,334.407 51.943,328.875 44.049,328.875 C36.212,328.875 30.795,334.407 30.795,342.416 C30.795,350.426 36.212,355.958 44.049,355.958 C51.943,355.958 57.302,350.426 57.302,342.416 L57.302,342.416 Z M48.428,342.416 C48.428,345.989 46.872,348.467 44.049,348.467 C41.283,348.467 39.726,345.989 39.726,342.416 C39.726,338.844 41.283,336.308 44.049,336.308 C46.872,336.308 48.428,338.844 48.428,342.416 L48.428,342.416 Z M78.22,329.336 C77.816,329.105 76.893,328.875 75.742,328.875 C73.149,328.875 71.132,330.027 69.864,331.756 L69.864,329.451 L60.817,329.451 L60.817,355.382 L69.864,355.382 L69.864,340.169 C70.325,338.325 71.996,337.23 74.474,337.23 C75.915,337.23 77.125,337.461 78.22,338.037 L78.22,329.336 Z M115.618,355.382 L122.936,334.349 L122.936,355.382 L131.637,355.382 L131.637,320 L120.399,320 L112.679,342.013 L104.899,320 L93.605,320 L93.605,355.382 L102.248,355.382 L102.248,334.349 L109.624,355.382 L115.618,355.382 Z M152.325,346.335 C151.806,348.121 150.364,348.928 148.52,348.928 C145.928,348.928 144.314,347.257 144.026,344.145 L160.795,344.145 L160.795,341.898 C160.795,334.176 156.301,328.875 148.348,328.875 C140.856,328.875 135.325,334.407 135.325,342.416 C135.325,350.484 140.568,355.958 148.52,355.958 C155.263,355.958 159.758,352.328 160.68,346.335 L152.325,346.335 Z M148.348,335.905 C150.596,335.905 151.921,337.518 152.036,339.65 L144.199,339.65 C144.775,337.23 146.216,335.905 148.348,335.905 L148.348,335.905 Z M164.253,355.382 L173.3,355.382 L173.3,339.708 C173.761,337.922 175.259,336.884 177.045,336.884 C179.35,336.884 180.444,338.44 180.444,340.572 L180.444,355.382 L189.435,355.382 L189.435,338.383 C189.435,332.62 186.035,328.875 180.271,328.875 C177.275,328.875 174.739,330.085 173.3,331.698 L173.3,329.451 L164.253,329.451 L164.253,355.382 L164.253,355.382 Z" id="Fill-12" fill="#FFFFFF"></path>
            <path d="M4,283.027 L14.891,283.027 L14.891,310.456 L24.169,310.456 L24.169,283.027 L35.118,283.027 L35.118,275.075 L4,275.075 L4,283.027 Z M38.689,310.456 L47.737,310.456 L47.737,294.782 C48.198,292.996 49.697,291.959 51.483,291.959 C53.787,291.959 54.883,293.514 54.883,295.647 L54.883,310.456 L63.871,310.456 L63.871,293.457 C63.871,287.695 60.473,283.949 54.709,283.949 C51.714,283.949 49.178,285.159 47.737,286.773 L47.737,273 L38.689,273 L38.689,310.456 Z M84.214,301.409 C83.695,303.196 82.255,304.002 80.41,304.002 C77.817,304.002 76.203,302.331 75.915,299.22 L92.684,299.22 L92.684,296.971 C92.684,289.25 88.189,283.949 80.238,283.949 C72.745,283.949 67.214,289.481 67.214,297.491 C67.214,305.557 72.457,311.033 80.41,311.033 C87.153,311.033 91.646,307.402 92.569,301.409 L84.214,301.409 Z M80.238,290.979 C82.485,290.979 83.809,292.593 83.926,294.725 L76.089,294.725 C76.664,292.304 78.105,290.979 80.238,290.979 L80.238,290.979 Z M130.139,292.189 C132.734,291.267 134.866,288.501 134.866,284.698 C134.866,278.359 130.429,275.075 123.053,275.075 L107.896,275.075 L107.896,310.456 L124.146,310.456 C131.522,310.456 135.903,306.941 135.903,300.545 C135.903,296.569 133.482,293.284 130.139,292.189 L130.139,292.189 Z M116.714,289.078 L116.714,282.68 L122.014,282.68 C124.723,282.68 126.163,283.661 126.163,285.851 C126.163,288.04 124.723,289.078 122.014,289.078 L116.714,289.078 Z M116.714,295.993 L122.936,295.993 C125.53,295.993 126.971,297.318 126.971,299.45 C126.971,301.467 125.53,302.85 122.936,302.85 L116.714,302.85 L116.714,295.993 Z M164.887,297.491 C164.887,289.481 159.529,283.949 151.633,283.949 C143.796,283.949 138.379,289.481 138.379,297.491 C138.379,305.501 143.796,311.033 151.633,311.033 C159.529,311.033 164.887,305.501 164.887,297.491 L164.887,297.491 Z M156.012,297.491 C156.012,301.064 154.457,303.541 151.633,303.541 C148.868,303.541 147.312,301.064 147.312,297.491 C147.312,293.918 148.868,291.383 151.633,291.383 C154.457,291.383 156.012,293.918 156.012,297.491 L156.012,297.491 Z M193.871,297.491 C193.871,289.481 188.512,283.949 180.618,283.949 C172.782,283.949 167.365,289.481 167.365,297.491 C167.365,305.501 172.782,311.033 180.618,311.033 C188.512,311.033 193.871,305.501 193.871,297.491 L193.871,297.491 Z M184.997,297.491 C184.997,301.064 183.442,303.541 180.618,303.541 C177.853,303.541 176.296,301.064 176.296,297.491 C176.296,293.918 177.853,291.383 180.618,291.383 C183.442,291.383 184.997,293.918 184.997,297.491 L184.997,297.491 Z M214.501,310.456 L224.873,310.456 L214.732,295.301 L224.585,284.525 L213.695,284.525 L206.434,292.823 L206.434,273 L197.386,273 L197.386,310.456 L206.434,310.456 L206.434,302.85 L208.162,300.833 L214.501,310.456 L214.501,310.456 Z" id="Fill-13" fill="#FFFFFF"></path>
            <path d="M119.709,220.612 C119.542,218.301 117.827,216.49 114.896,216.49 C112.037,216.49 110.012,218.109 110.012,220.659 C110.012,221.588 110.25,222.35 110.798,223.16 C109.44,223.948 108.511,225.352 108.511,226.949 C108.511,229.831 110.584,231.595 113.705,231.595 C114.992,231.595 116.231,231.213 117.326,230.522 L118.089,231.356 L122.282,231.356 L119.638,228.307 C120.567,226.996 121.115,225.376 121.139,223.614 L117.851,223.614 C117.827,224.424 117.708,225.162 117.469,225.782 L114.682,222.541 C114.134,221.921 113.61,221.35 113.61,220.659 C113.61,219.945 114.134,219.42 114.896,219.42 C115.683,219.42 116.064,219.992 116.111,220.612 L119.709,220.612 Z M113.753,228.712 C112.585,228.712 111.942,227.949 111.942,226.949 C111.942,226.282 112.252,225.71 112.704,225.4 L115.349,228.33 C114.849,228.57 114.301,228.712 113.753,228.712 L113.753,228.712 Z" id="Fill-14" fill="#D9283D"></path>
            <path d="M2.456,225.105 L101.268,225.105 M129.555,224.998 L226.672,224.998 M2.456,403.538 L229.127,403.538" id="Stroke-15" stroke="#D9283D" stroke-width="0.923"></path>
        </g>
    </g>
</svg>