<?xml version="1.0" encoding="UTF-8" standalone="no"?>
<svg width="300px" height="374px" viewBox="0 0 300 374" version="1.1" xmlns="http://www.w3.org/2000/svg" xmlns:xlink="http://www.w3.org/1999/xlink" xmlns:sketch="http://www.bohemiancoding.com/sketch/ns">
    <!-- Generator: Sketch 3.4 (15588) - http://www.bohemiancoding.com/sketch -->
    <title>S-300</title>
    <desc>Created with Sketch.</desc>
    <defs></defs>
    <g id="Page-1" stroke="none" stroke-width="1" fill="none" fill-rule="evenodd" sketch:type="MSPage">
        <g id="S-300" sketch:type="MSLayerGroup" fill="#F2F2F2">
            <g id="Page-1" sketch:type="MSShapeGroup">
                <g id="S-website">
                    <g id="Page-1">
                        <g id="S-logo-black-website">
                            <path d="M296.193026,0.635 L204.027551,222.177751 C181.016183,159.117163 76.5730001,132.036338 76.5730001,70.3917924 C76.5730001,40.9722292 98.33633,17.2461729 135.198787,17.2461729 C169.839842,17.2461729 200.931456,44.7670115 204.038218,111.67305 C204.483565,120.686658 204.483565,124.961455 206.704966,124.961455 L207.150313,124.961455 L221.804092,0.635 L220.473385,0.635 C211.590448,17.2461729 200.040763,21.0409552 186.71769,21.0409552 C170.285189,21.0409552 150.74326,14.3980861 131.644012,14.3980861 C79.2370813,14.3980861 29.4942321,40.4948813 29.4942321,102.182094 C29.4942321,170.512177 156.95945,205.625247 156.95945,269.211184 C156.95945,300.529472 136.086814,341.81073 81.0131354,341.81073 C24.6087499,341.81073 3.29076695,291.038516 3.29076695,226.028535 C3.29076695,224.471154 2.59474574,220.999049 0.37334471,220.999049 L0,221.129719 C0,221.129719 0.258674549,310.815119 0.0426679669,359.525937 C0.0453347148,359.083256 -0.146671136,362.347356 0.917361288,360.792642 C8.68559801,342.36808 29.1315544,339.365322 37.1291315,339.365322 C52.2282582,339.365322 63.6926076,344.658817 85.4559375,344.658817 C114.430154,344.658817 139.90293,338.791971 160.052877,327.879639 L141.270972,373.025015 L145.079088,373.025015 L300.001142,0.635 L296.193026,0.635" id="Fill-3"></path>
                        </g>
                    </g>
                </g>
            </g>
        </g>
    </g>
</svg>