<?xml version="1.0" encoding="UTF-8" standalone="no"?>
<svg width="100px" height="125px" viewBox="0 0 100 125" version="1.1" xmlns="http://www.w3.org/2000/svg" xmlns:xlink="http://www.w3.org/1999/xlink">
    <!-- Generator: Sketch 3.8.3 (29802) - http://www.bohemiancoding.com/sketch -->
    <title>S logo black</title>
    <desc>Created with Sketch.</desc>
    <defs></defs>
    <g id="Page-1" stroke="none" stroke-width="1" fill="none" fill-rule="evenodd">
        <path d="M98.7359663,0.453106407 L68.0480368,74.5055302 C60.3722766,53.4146782 25.5393477,44.357022 25.5393477,23.7386193 C25.5393477,13.8991931 32.797319,5.9638269 45.0918691,5.9638269 C56.645955,5.9638269 67.0151204,15.1685664 68.0515925,37.5466201 C68.2000409,40.5613817 68.2000409,41.9903182 68.9405051,41.9903182 L69.0889535,41.9903182 L73.9770838,0.408535714 L73.5326275,0.408535714 C70.5698819,5.9638269 66.7182236,7.23320025 62.2745495,7.23320025 C56.7944034,7.23320025 50.2768963,5.0117969 43.9069486,5.0117969 C26.4273714,5.0117969 9.83759567,13.7405214 9.83759567,34.3722953 C9.83759567,57.2254725 52.3498404,68.9689587 52.3498404,90.2363106 C52.3498404,100.710424 45.3887659,114.517533 27.0202761,114.517533 C8.20821889,114.517533 1.09780705,97.5369902 1.09780705,75.7936232 C1.09780705,75.2721461 0.865800866,74.1106339 0.124447763,74.1106339 L0,74.1552046 C0,74.1552046 0.0862245215,104.15039 0.0142226015,120.443652 C0.0151115141,120.294786 -0.0488901926,121.386768 0.305785932,120.866182 C2.89696614,114.70473 9.71581464,113.700106 12.3834413,113.700106 C17.4200201,113.700106 21.2432332,115.470454 28.5012045,115.470454 C38.1654622,115.470454 46.6607998,113.508452 53.381868,109.858113 L47.116812,124.957772 L48.387957,124.957772 L100,0.459346304 L98.7359663,0.453106407" id="S-logo-black" fill="#000000"></path>
    </g>
</svg>