<?xml version="1.0" encoding="UTF-8"?>
<svg width="600px" height="399px" viewBox="0 0 600 399" version="1.1" xmlns="http://www.w3.org/2000/svg" xmlns:xlink="http://www.w3.org/1999/xlink">
    <!-- Generator: Sketch 43.1 (39012) - http://www.bohemiancoding.com/sketch -->
    <title>Sharp-BFM-logo</title>
    <desc>Created with Sketch.</desc>
    <defs></defs>
    <g id="Page-1" stroke="none" stroke-width="1" fill="none" fill-rule="evenodd">
        <g id="Sharp-BFM-logo" fill-rule="nonzero" fill="#FFFFFF">
            <path d="M60.348,82.389 C60.348,72.987 58.033,68.463 50.44,63.015 L28.247,46.635 C24.658,44.115 23.381,41.722 23.381,37.509 L23.381,25.368 C23.381,21.672 25.346,19.714 29.064,19.714 L31.1,19.714 C34.818,19.714 36.783,21.672 36.783,25.368 L36.783,41.552 L59.982,30.285 L59.982,22.978 C59.982,7.599 52.469,0.126 37.014,0.126 L22.969,0.126 C7.513,0.126 0,7.599 0,22.978 L0,43.396 C0,52.564 2.502,57.454 9.91,62.771 L32.102,79.15 C35.69,81.67 36.967,84.06 36.967,88.273 L36.967,103.724 C36.967,107.423 35.002,109.38 31.286,109.38 L28.88,109.38 C25.162,109.38 23.198,107.423 23.198,103.724 L23.198,84.309 L0,95.26 L0,106.117 C0,121.494 7.513,128.967 22.969,128.967 L37.385,128.967 C52.837,128.967 60.348,121.494 60.348,106.117 L60.348,82.389" id="Fill-1"></path>
            <polyline id="Fill-2" points="104.818 1.126 104.818 58.221 89.753 58.221 89.753 1.126 66 1.126 66 127.765 89.753 127.765 89.753 79.097 104.818 79.097 104.818 127.765 128.565 127.765 128.565 1.126 104.818 1.126"></polyline>
            <path d="M150.723,1.126 L134,127.767 L155.299,127.767 L157.835,101.412 L175.358,101.412 L177.392,127.767 L200.889,127.767 L184.164,1.126 L150.723,1.126 Z M166.161,21.837 L173.356,81.086 L160.021,81.086 L166.161,21.837 L166.161,21.837 Z" id="Fill-3"></path>
            <path d="M228.752,59.249 L228.752,21.45 L236.099,21.45 C239.818,21.45 241.782,23.408 241.782,27.106 L241.782,53.593 C241.782,57.292 239.818,59.249 236.099,59.249 L228.752,59.249 Z M241.966,84.679 L241.966,127.765 L265.718,127.765 L265.718,84.496 C265.718,75.529 262.676,71.029 255.22,68.959 L252.052,68.081 L255.139,66.95 C262.327,64.312 265.534,58.718 265.534,48.809 L265.534,23.979 C265.534,8.601 258.02,1.126 242.57,1.126 L205,1.126 L205,127.765 L228.752,127.765 L228.752,79.021 L236.285,79.021 C240.001,79.021 241.966,80.979 241.966,84.679 L241.966,84.679 Z" id="Fill-4"></path>
            <path d="M308.042,53.393 C308.042,57.092 306.077,59.049 302.359,59.049 L295.753,59.049 L295.753,21.082 L302.359,21.082 C306.077,21.082 308.042,23.04 308.042,26.74 L308.042,53.393 Z M331.792,23.978 C331.792,8.6 324.283,1.126 308.826,1.126 L272,1.126 L272,127.764 L295.753,127.764 L295.753,78.429 L308.826,78.429 C324.283,78.429 331.792,70.952 331.792,55.573 L331.792,23.978 L331.792,23.978 Z" id="Fill-5"></path>
            <path d="M51.548,285.713 C48.455,284.338 44.674,283.652 39.692,283.652 C23.369,283.652 12.544,293.616 12.544,310.971 L12.544,320.078 L0,320.078 L0,337.261 L12.544,337.261 L12.544,396.883 L33.507,396.883 L33.507,337.261 L49.487,337.261 L49.487,320.078 L33.507,320.078 L33.507,312.346 C33.507,305.301 37.459,301.693 43.988,301.693 C46.566,301.693 49.313,302.208 51.548,303.754 L51.548,285.713 Z M124.916,358.566 C124.916,334.855 109.624,318.36 87.287,318.36 C64.95,318.36 49.659,334.855 49.659,358.566 C49.659,382.107 64.95,398.601 87.287,398.601 C109.624,398.601 124.916,382.107 124.916,358.566 L124.916,358.566 Z M103.782,358.566 C103.782,371.28 97.94,380.56 87.287,380.56 C76.635,380.56 70.792,371.28 70.792,358.566 C70.792,345.679 76.635,336.401 87.287,336.401 C97.94,336.401 103.782,345.679 103.782,358.566 L103.782,358.566 Z M178.182,319.734 C176.979,319.046 173.714,318.36 170.105,318.36 C162.545,318.36 156.188,322.139 152.924,327.638 L152.924,320.078 L131.618,320.078 L131.618,396.883 L152.924,396.883 L152.924,349.288 C154.47,342.243 160.312,338.462 167.529,338.462 C171.48,338.462 175.261,339.322 178.182,341.04 L178.182,319.734 Z M277.149,396.883 L302.751,327.981 L302.751,396.883 L323.541,396.883 L323.541,291.384 L297.768,291.384 L269.761,365.783 L241.582,291.384 L215.466,291.384 L215.466,396.883 L236.085,396.883 L236.085,327.981 L262.201,396.883 L277.149,396.883 Z M382.819,371.797 C381.101,378.326 375.776,381.418 368.559,381.418 C359.107,381.418 352.579,374.546 351.892,363.034 L403.095,363.034 L403.095,356.505 C403.095,333.995 390.724,318.36 368.215,318.36 C346.737,318.36 331.273,335.369 331.273,358.566 C331.273,382.278 346.222,398.601 368.559,398.601 C387.803,398.601 399.831,388.12 402.58,371.797 L382.819,371.797 Z M368.387,335.714 C377.15,335.714 381.961,342.071 382.133,350.146 L352.407,350.146 C354.297,340.697 360.139,335.714 368.387,335.714 L368.387,335.714 Z M409.795,396.883 L431.101,396.883 L431.101,348.257 C432.819,341.555 438.489,337.604 445.019,337.604 C453.438,337.604 457.562,343.103 457.562,351.178 L457.562,396.883 L478.867,396.883 L478.867,346.71 C478.867,329.701 469.074,318.36 451.72,318.36 C442.785,318.36 435.225,322.312 431.101,327.123 L431.101,320.078 L409.795,320.078 L409.795,396.883 L409.795,396.883 Z" id="Fill-6"></path>
            <path d="M0,175.038 L33.85,175.038 L33.85,261.293 L56.015,261.293 L56.015,175.038 L90.035,175.038 L90.035,155.793 L0,155.793 L0,175.038 Z M96.737,261.293 L118.042,261.293 L118.042,212.667 C119.76,205.966 125.431,202.014 131.959,202.014 C140.379,202.014 144.503,207.513 144.503,215.588 L144.503,261.293 L165.809,261.293 L165.809,211.12 C165.809,194.111 156.014,182.769 138.661,182.769 C129.726,182.769 122.166,186.722 118.042,191.533 L118.042,149.608 L96.737,149.608 L96.737,261.293 Z M223.369,236.207 C221.649,242.735 216.323,245.828 209.106,245.828 C199.657,245.828 193.126,238.956 192.44,227.444 L243.643,227.444 L243.643,220.915 C243.643,198.406 231.272,182.769 208.763,182.769 C187.284,182.769 171.821,199.781 171.821,222.976 C171.821,246.688 186.769,263.011 209.106,263.011 C228.351,263.011 240.378,252.53 243.128,236.207 L223.369,236.207 Z M208.935,200.124 C217.698,200.124 222.509,206.481 222.68,214.558 L192.955,214.558 C194.844,205.107 200.686,200.124 208.935,200.124 L208.935,200.124 Z M342.782,206.824 C350.513,204.075 356.701,195.828 356.701,184.487 C356.701,165.588 343.125,155.793 321.133,155.793 L280.755,155.793 L280.755,261.293 L324.569,261.293 C346.563,261.293 359.965,250.812 359.965,231.396 C359.965,219.883 352.748,210.091 342.782,206.824 L342.782,206.824 Z M301.889,199.093 L301.889,174.351 L319.758,174.351 C330.239,174.351 335.737,178.13 335.737,186.55 C335.737,194.969 330.239,199.093 319.758,199.093 L301.889,199.093 Z M301.889,216.276 L322.679,216.276 C332.989,216.276 338.486,221.258 338.486,229.507 C338.486,237.581 332.989,242.735 322.679,242.735 L301.889,242.735 L301.889,216.276 Z M438.487,222.976 C438.487,199.264 423.195,182.769 400.858,182.769 C378.521,182.769 363.227,199.264 363.227,222.976 C363.227,246.516 378.521,263.011 400.858,263.011 C423.195,263.011 438.487,246.516 438.487,222.976 L438.487,222.976 Z M417.353,222.976 C417.353,235.692 411.511,244.97 400.858,244.97 C390.203,244.97 384.363,235.692 384.363,222.976 C384.363,210.091 390.203,200.811 400.858,200.811 C411.511,200.811 417.353,210.091 417.353,222.976 L417.353,222.976 Z M518.04,222.976 C518.04,199.264 502.749,182.769 480.411,182.769 C458.074,182.769 442.781,199.264 442.781,222.976 C442.781,246.516 458.074,263.011 480.411,263.011 C502.749,263.011 518.04,246.516 518.04,222.976 L518.04,222.976 Z M496.906,222.976 C496.906,235.692 491.064,244.97 480.411,244.97 C469.757,244.97 463.915,235.692 463.915,222.976 C463.915,210.091 469.757,200.811 480.411,200.811 C491.064,200.811 496.906,210.091 496.906,222.976 L496.906,222.976 Z M574.742,261.293 L600,261.293 L567.697,217.134 L598.797,184.487 L572.336,184.487 L546.046,213.01 L546.046,149.608 L524.741,149.608 L524.741,261.293 L546.046,261.293 L546.046,237.067 L552.233,230.365 L574.742,261.293 L574.742,261.293 Z" id="Fill-7"></path>
        </g>
    </g>
</svg>