<?xml version="1.0" encoding="UTF-8" standalone="no"?>
<svg width="102px" height="40px" viewBox="0 0 102 40" version="1.1" xmlns="http://www.w3.org/2000/svg" xmlns:xlink="http://www.w3.org/1999/xlink">
    <!-- Generator: Sketch 3.6.1 (26313) - http://www.bohemiancoding.com/sketch -->
    <title>Group</title>
    <desc>Created with Sketch.</desc>
    <defs></defs>
    <g id="Page-1" stroke="none" stroke-width="1" fill="none" fill-rule="evenodd">
        <g id="Group-2" transform="translate(-198.000000, 0.000000)" fill="#4A4A4A">
            <g id="sharp_logo_white" transform="translate(198.000000, 0.000000)">
                <g id="Sharp-Logo-black">
                    <g id="Page-1">
                        <g id="Sharp-Logo-black">
                            <g id="Layer_1">
                                <g id="Group">
                                    <path d="M18.4,25.6 C18.4,22.7333333 17.6666667,21.3333333 15.4,19.6666667 L8.6,14.6666667 C7.53333333,13.8666667 7.13333333,13.1333333 7.13333333,11.8666667 L7.13333333,8.13333333 C7.13333333,7 7.73333333,6.4 8.86666667,6.4 L9.46666667,6.4 C10.6,6.4 11.2,7 11.2,8.13333333 L11.2,13.1333333 L18.2666667,9.66666667 L18.2666667,7.33333333 C18.3333333,2.6 16,0.333333333 11.3333333,0.333333333 L7.06666667,0.333333333 C2.26666667,0.333333333 0,2.6 0,7.33333333 L0,13.6 C0,16.4 0.733333333,17.9333333 3,19.5333333 L9.8,24.5333333 C10.8666667,25.3333333 11.2666667,26.0666667 11.2666667,27.3333333 L11.2666667,32.0666667 C11.2666667,33.2 10.6666667,33.8 9.53333333,33.8 L8.8,33.8 C7.66666667,33.8 7.06666667,33.2 7.06666667,32.0666667 L7.06666667,26.1333333 L0,29.5333333 L0,32.8666667 C0,37.6 2.26666667,39.8666667 7,39.8666667 L11.4,39.8666667 C16.1333333,39.8666667 18.4,37.6 18.4,32.8666667 L18.4,25.6 L18.4,25.6 L18.4,25.6 L18.4,25.6 Z" id="Shape"></path>
                                    <path d="M39.4,39.5333333 L39.4,0.666666667 L32.1333333,0.666666667 L32.1333333,18.2 L27.5333333,18.2 L27.5333333,0.666666667 L20.2666667,0.666666667 L20.2666667,39.5333333 L27.5333333,39.5333333 L27.5333333,24.6 L32.1333333,24.6 L32.1333333,39.5333333 L39.4,39.5333333 L39.4,39.5333333 L39.4,39.5333333 Z" id="Shape"></path>
                                    <path d="M53.6,31.4666667 L54.2,39.5333333 L61.4,39.5333333 L56.3333333,0.666666667 L46.1333333,0.666666667 L41,39.5333333 L47.5333333,39.5333333 L48.3333333,31.4666667 L53.6,31.4666667 L53.6,31.4666667 L53.6,31.4666667 L53.6,31.4666667 Z M50.8,7 L53,25.2 L48.9333333,25.2 L50.8,7 L50.8,7 L50.8,7 L50.8,7 Z" id="Shape"></path>
                                    <path d="M73.9333333,26.3333333 L73.9333333,39.5333333 L81.2,39.5333333 L81.2,26.2666667 C81.2,23.5333333 80.2666667,22.1333333 78,21.4666667 L77.0666667,21.2 L78,20.8666667 C80.2,20.0666667 81.2,18.3333333 81.2,15.3333333 L81.2,7.66666667 C81.2,2.93333333 78.9333333,0.666666667 74.2,0.666666667 L62.6666667,0.666666667 L62.6666667,39.5333333 L69.9333333,39.5333333 L69.9333333,24.6 L72.2666667,24.6 C73.3333333,24.6 73.9333333,25.2 73.9333333,26.3333333 L73.9333333,26.3333333 L73.9333333,26.3333333 L73.9333333,26.3333333 Z M69.9333333,18.5333333 L69.9333333,6.93333333 L72.2,6.93333333 C73.3333333,6.93333333 73.9333333,7.53333333 73.9333333,8.66666667 L73.9333333,16.8 C73.9333333,17.9333333 73.3333333,18.5333333 72.2,18.5333333 L69.9333333,18.5333333 L69.9333333,18.5333333 L69.9333333,18.5333333 L69.9333333,18.5333333 Z" id="Shape"></path>
                                    <path d="M101.4,7.66666667 C101.4,2.93333333 99.1333333,0.666666667 94.4,0.666666667 L83.1333333,0.666666667 L83.1333333,39.5333333 L90.4,39.5333333 L90.4,24.4 L94.4,24.4 C99.1333333,24.4 101.4,22.1333333 101.4,17.4 L101.4,7.66666667 L101.4,7.66666667 L101.4,7.66666667 L101.4,7.66666667 Z M94.1333333,16.7333333 C94.1333333,17.8666667 93.5333333,18.4666667 92.4,18.4666667 L90.4,18.4666667 L90.4,6.8 L92.4,6.8 C93.5333333,6.8 94.1333333,7.4 94.1333333,8.53333333 L94.1333333,16.7333333 L94.1333333,16.7333333 L94.1333333,16.7333333 L94.1333333,16.7333333 Z" id="Shape"></path>
                                </g>
                            </g>
                        </g>
                    </g>
                </g>
            </g>
        </g>
    </g>
</svg>